<svg width="247" height="39" viewBox="0 0 247 39" fill="none" xmlns="http://www.w3.org/2000/svg">
    <g clip-path="url(#clip0_5424_7390)">
        <g clip-path="url(#clip1_5424_7390)">
            <g clip-path="url(#clip2_5424_7390)">
                <mask id="mask0_5424_7390" style="mask-type:luminance" maskUnits="userSpaceOnUse" x="31" y="7" width="49" height="24">
                    <path d="M79.2174 7.91919H31.7019V30.1011H79.2174V7.91919Z" fill="white"/>
                </mask>
                <g mask="url(#mask0_5424_7390)">
                    <path d="M34.0321 8.21219L32.2332 9.76515L32.2279 15.9665L33.5008 17.5405L31.7019 19.0882V25.2264L32.9696 26.8004L34.8264 25.2264V19.0882H41.0175L41.0122 25.2264L42.3325 26.8004L44.1314 25.2264L44.142 19.0882L42.8217 17.5405L41.5435 15.9665H37.5984L45.883 10.2653L46.2407 8.21219L43.6423 8.11743L35.3524 13.766V9.76515L34.0321 8.21219Z" fill="#1F8AFF"/>
                    <path d="M57.0797 23.6709L57.1217 18.8351L58.6995 17.344L57.0797 15.648L57.1322 11.0223H50.932L50.8794 15.648L49.2701 17.344L50.9372 18.8351L50.8794 23.6709H57.0797ZM56.9536 7.91919L60.2511 11.038L60.1983 15.6638L58.6943 17.3597L60.2403 18.8509L60.1983 23.6866L56.5169 26.8002H50.8215L47.7608 23.6866L47.8134 18.8509L49.2701 17.3597L47.7608 15.6638L47.8081 11.038L51.1844 7.91919H56.9536Z" fill="#1F8AFF"/>
                    <path d="M73.5036 23.6789L73.6457 19.0923L75.4434 17.5459L74.1712 16.0205L74.3133 11.3287H68.1212L67.9844 15.9995L66.1919 17.5038L67.4326 19.0818L67.301 23.6789H73.5036ZM74.8651 8.20438H77.9822L77.4565 11.3287L77.2884 15.9995L75.4381 17.5249L76.7626 19.0713V23.6579C77.6143 24.7835 78.3397 25.6776 79.2174 26.777L79.1701 28.4759L77.3672 30.1012L76.0477 28.4285L76.0897 26.7296L63.5112 26.677L63.4167 28.6232L61.8398 30.1012L60.5151 28.4759V26.777L64.058 23.6579H64.2104L64.3259 19.0713L66.2077 17.4933L64.8622 15.9995L64.9988 11.3077L66.8543 9.72973L68.6257 8.18335L74.8651 8.20438Z" fill="#1F8AFF"/>
                </g>
            </g>
        </g>
    </g>
    <path d="M95.0559 4.75562L95.0559 33.2649" stroke="url(#paint0_linear_5424_7390)"/>
    <path d="M105.436 9.37061H106.982C107.567 9.37061 108.083 9.44141 108.527 9.58301C108.976 9.71973 109.35 9.91016 109.648 10.1543C109.95 10.3984 110.177 10.6841 110.329 11.0112C110.485 11.3384 110.563 11.6924 110.563 12.0732C110.563 12.5273 110.473 12.9375 110.292 13.3037C110.116 13.665 109.865 13.9727 109.538 14.2266C109.215 14.4805 108.825 14.6758 108.366 14.8125C107.912 14.9443 107.404 15.0103 106.842 15.0103H104.132V5.4375H109.889V6.53613H105.436V9.37061ZM109.186 12.1611C109.186 11.9023 109.142 11.668 109.054 11.458C108.966 11.248 108.83 11.0674 108.644 10.916C108.459 10.7646 108.222 10.6499 107.934 10.5718C107.646 10.4888 107.299 10.4473 106.894 10.4473H105.436V13.9116H106.938C107.68 13.9116 108.239 13.7603 108.615 13.4575C108.996 13.1499 109.186 12.7178 109.186 12.1611ZM117.939 15.0103H116.664V8.75537H114.614C114.555 9.76123 114.467 10.623 114.35 11.3408C114.238 12.0586 114.101 12.6592 113.94 13.1426C113.779 13.6211 113.596 13.9995 113.39 14.2778C113.185 14.5513 112.963 14.7515 112.724 14.8784C112.49 15.0005 112.241 15.0591 111.977 15.0542C111.713 15.0542 111.442 15.02 111.164 14.9517L111.223 13.897C111.418 13.9165 111.601 13.9067 111.772 13.8677C111.943 13.8286 112.101 13.7358 112.248 13.5894C112.394 13.438 112.526 13.2231 112.643 12.9448C112.765 12.6616 112.875 12.2856 112.973 11.8169C113.071 11.3481 113.154 10.7744 113.222 10.0957C113.295 9.41211 113.354 8.59912 113.398 7.65674H117.939V15.0103ZM124.765 15.0103L124.736 14.0215C124.336 14.417 123.928 14.7026 123.513 14.8784C123.103 15.0542 122.671 15.1421 122.216 15.1421C121.797 15.1421 121.438 15.0884 121.14 14.981C120.842 14.8735 120.595 14.7271 120.4 14.5415C120.21 14.3511 120.068 14.1289 119.975 13.875C119.887 13.6211 119.843 13.3452 119.843 13.0474C119.843 12.3101 120.117 11.7339 120.664 11.3188C121.215 10.8989 122.028 10.689 123.103 10.689H124.626V10.0444C124.626 9.60986 124.487 9.26318 124.209 9.00439C123.93 8.74072 123.506 8.60889 122.934 8.60889C122.519 8.60889 122.109 8.65527 121.704 8.74805C121.303 8.84082 120.888 8.97266 120.459 9.14355V7.99365C120.62 7.93506 120.798 7.87891 120.993 7.8252C121.194 7.7666 121.403 7.71533 121.623 7.67139C121.843 7.62744 122.072 7.59326 122.312 7.56885C122.551 7.53955 122.793 7.5249 123.037 7.5249C123.481 7.5249 123.882 7.57373 124.238 7.67139C124.594 7.76904 124.895 7.91797 125.139 8.11816C125.388 8.31836 125.578 8.56982 125.71 8.87256C125.842 9.17529 125.908 9.53174 125.908 9.94189V15.0103H124.765ZM124.626 11.6631H123.007C122.69 11.6631 122.417 11.6948 122.187 11.7583C121.958 11.8218 121.77 11.9121 121.623 12.0293C121.477 12.1465 121.367 12.2881 121.294 12.4541C121.225 12.6152 121.191 12.7983 121.191 13.0034C121.191 13.145 121.213 13.2817 121.257 13.4136C121.301 13.5405 121.372 13.6553 121.469 13.7578C121.567 13.8555 121.694 13.9336 121.85 13.9922C122.007 14.0508 122.197 14.0801 122.422 14.0801C122.715 14.0801 123.049 13.9922 123.425 13.8164C123.806 13.6357 124.206 13.3525 124.626 12.9668V11.6631ZM129.878 8.75537V15.0103H128.589V7.65674H133.914V8.75537H129.878ZM142.337 11.2749C142.337 11.8462 142.256 12.3711 142.095 12.8496C141.934 13.3232 141.702 13.731 141.399 14.0728C141.096 14.4097 140.728 14.6733 140.293 14.8638C139.859 15.0493 139.365 15.1421 138.814 15.1421C138.286 15.1421 137.813 15.0615 137.393 14.9004C136.978 14.7344 136.624 14.4927 136.331 14.1753C136.043 13.8579 135.821 13.4648 135.664 12.9961C135.513 12.5273 135.437 11.9878 135.437 11.3774C135.437 10.8062 135.518 10.2861 135.679 9.81738C135.84 9.34375 136.072 8.93848 136.375 8.60156C136.678 8.25977 137.046 7.99609 137.481 7.81055C137.915 7.62012 138.408 7.5249 138.96 7.5249C139.488 7.5249 139.959 7.60791 140.374 7.77393C140.794 7.93506 141.148 8.17432 141.436 8.4917C141.729 8.8042 141.951 9.19482 142.102 9.66357C142.259 10.1323 142.337 10.6694 142.337 11.2749ZM141.033 11.3335C141.033 10.8794 140.982 10.4839 140.879 10.147C140.782 9.80518 140.64 9.52197 140.454 9.29736C140.269 9.06787 140.042 8.89697 139.773 8.78467C139.51 8.66748 139.214 8.60889 138.887 8.60889C138.506 8.60889 138.179 8.68457 137.906 8.83594C137.637 8.98242 137.415 9.18018 137.239 9.4292C137.068 9.67822 136.941 9.96875 136.858 10.3008C136.78 10.6279 136.741 10.9722 136.741 11.3335C136.741 11.7876 136.79 12.1855 136.887 12.5273C136.99 12.8691 137.134 13.1548 137.32 13.3843C137.505 13.6089 137.73 13.7798 137.993 13.897C138.257 14.0093 138.555 14.0654 138.887 14.0654C139.268 14.0654 139.593 13.9922 139.861 13.8457C140.135 13.6943 140.357 13.4941 140.528 13.2451C140.703 12.9961 140.83 12.708 140.908 12.3809C140.991 12.0488 141.033 11.6997 141.033 11.3335ZM150.269 8.75537H147.479V15.0103H146.19V8.75537H143.399V7.65674H150.269V8.75537ZM158.143 12.8643C158.143 13.2012 158.072 13.5088 157.931 13.7871C157.789 14.0654 157.569 14.3047 157.271 14.5049C156.973 14.7002 156.595 14.854 156.136 14.9663C155.682 15.0737 155.14 15.1274 154.51 15.1274C154.095 15.1274 153.653 15.1104 153.184 15.0762C152.716 15.0469 152.264 15.0054 151.829 14.9517V7.69336C152.288 7.63965 152.752 7.59814 153.221 7.56885C153.695 7.53955 154.205 7.5249 154.752 7.5249C155.743 7.5249 156.495 7.68848 157.008 8.01562C157.525 8.33789 157.784 8.8042 157.784 9.41455C157.784 9.82959 157.664 10.186 157.425 10.4839C157.186 10.7817 156.825 11.0015 156.341 11.1431C156.576 11.1821 156.8 11.248 157.015 11.3408C157.235 11.4287 157.428 11.5459 157.594 11.6924C157.76 11.834 157.891 12.0024 157.989 12.1978C158.092 12.3931 158.143 12.6152 158.143 12.8643ZM156.48 9.6709C156.48 9.5 156.446 9.34619 156.378 9.20947C156.309 9.07275 156.2 8.95557 156.048 8.85791C155.902 8.76025 155.706 8.68701 155.462 8.63818C155.223 8.58447 154.932 8.55762 154.591 8.55762C154.283 8.55762 154.015 8.56494 153.785 8.57959C153.556 8.58936 153.328 8.60889 153.104 8.63818V10.7622H154.583C155.848 10.7622 156.48 10.3984 156.48 9.6709ZM156.795 12.8936C156.795 12.5127 156.622 12.2271 156.275 12.0366C155.933 11.8413 155.399 11.7437 154.671 11.7437H153.104V13.9922C153.343 14.0312 153.58 14.0581 153.814 14.0728C154.049 14.0874 154.317 14.0947 154.62 14.0947C155.055 14.0947 155.411 14.0654 155.689 14.0068C155.973 13.9482 156.195 13.8652 156.356 13.7578C156.522 13.6504 156.637 13.5234 156.7 13.377C156.764 13.2305 156.795 13.0693 156.795 12.8936ZM166.178 11.2749C166.178 11.8462 166.097 12.3711 165.936 12.8496C165.775 13.3232 165.543 13.731 165.24 14.0728C164.938 14.4097 164.569 14.6733 164.134 14.8638C163.7 15.0493 163.207 15.1421 162.655 15.1421C162.128 15.1421 161.654 15.0615 161.234 14.9004C160.819 14.7344 160.465 14.4927 160.172 14.1753C159.884 13.8579 159.662 13.4648 159.506 12.9961C159.354 12.5273 159.278 11.9878 159.278 11.3774C159.278 10.8062 159.359 10.2861 159.52 9.81738C159.681 9.34375 159.913 8.93848 160.216 8.60156C160.519 8.25977 160.887 7.99609 161.322 7.81055C161.757 7.62012 162.25 7.5249 162.801 7.5249C163.329 7.5249 163.8 7.60791 164.215 7.77393C164.635 7.93506 164.989 8.17432 165.277 8.4917C165.57 8.8042 165.792 9.19482 165.944 9.66357C166.1 10.1323 166.178 10.6694 166.178 11.2749ZM164.874 11.3335C164.874 10.8794 164.823 10.4839 164.72 10.147C164.623 9.80518 164.481 9.52197 164.296 9.29736C164.11 9.06787 163.883 8.89697 163.614 8.78467C163.351 8.66748 163.055 8.60889 162.728 8.60889C162.347 8.60889 162.02 8.68457 161.747 8.83594C161.478 8.98242 161.256 9.18018 161.08 9.4292C160.909 9.67822 160.782 9.96875 160.699 10.3008C160.621 10.6279 160.582 10.9722 160.582 11.3335C160.582 11.7876 160.631 12.1855 160.729 12.5273C160.831 12.8691 160.975 13.1548 161.161 13.3843C161.346 13.6089 161.571 13.7798 161.835 13.897C162.098 14.0093 162.396 14.0654 162.728 14.0654C163.109 14.0654 163.434 13.9922 163.702 13.8457C163.976 13.6943 164.198 13.4941 164.369 13.2451C164.545 12.9961 164.672 12.708 164.75 12.3809C164.833 12.0488 164.874 11.6997 164.874 11.3335ZM174.008 11.2017C174.008 11.856 173.915 12.4272 173.729 12.9155C173.549 13.4038 173.297 13.8091 172.975 14.1313C172.653 14.4536 172.272 14.6953 171.832 14.8564C171.393 15.0176 170.917 15.0981 170.404 15.0981C170.17 15.0981 169.936 15.0859 169.701 15.0615C169.472 15.0371 169.237 14.9956 168.998 14.937V18.0132H167.724V7.65674H168.859L168.939 8.88721C169.306 8.38428 169.696 8.03271 170.111 7.83252C170.526 7.62744 170.976 7.5249 171.459 7.5249C171.879 7.5249 172.248 7.61279 172.565 7.78857C172.882 7.96436 173.148 8.21338 173.363 8.53564C173.578 8.85303 173.739 9.23877 173.847 9.69287C173.954 10.1421 174.008 10.645 174.008 11.2017ZM172.704 11.2603C172.704 10.8745 172.675 10.5205 172.616 10.1982C172.562 9.87598 172.475 9.6001 172.353 9.37061C172.23 9.14111 172.074 8.96289 171.884 8.83594C171.693 8.7041 171.466 8.63818 171.203 8.63818C171.041 8.63818 170.878 8.66504 170.712 8.71875C170.546 8.76758 170.373 8.85303 170.192 8.9751C170.016 9.09229 169.828 9.25098 169.628 9.45117C169.433 9.64648 169.223 9.89062 168.998 10.1836V13.7505C169.232 13.8481 169.479 13.9263 169.738 13.9849C169.997 14.0386 170.25 14.0654 170.499 14.0654C171.188 14.0654 171.728 13.8335 172.118 13.3696C172.509 12.9009 172.704 12.1978 172.704 11.2603ZM177.048 7.65674V12.835L180.256 7.65674H181.471V15.0103H180.197V9.83203L176.989 15.0103H175.773V7.65674H177.048ZM190.004 8.75537H187.214V15.0103H185.925V8.75537H183.134V7.65674H190.004V8.75537ZM197.776 10.9453C197.776 11.126 197.773 11.2773 197.768 11.3994C197.764 11.5215 197.756 11.6362 197.746 11.7437H192.583C192.583 12.4956 192.793 13.0742 193.213 13.4795C193.633 13.8799 194.238 14.0801 195.029 14.0801C195.244 14.0801 195.459 14.0728 195.674 14.0581C195.889 14.0386 196.096 14.0142 196.296 13.9849C196.496 13.9556 196.687 13.9238 196.868 13.8896C197.053 13.8506 197.224 13.8091 197.38 13.7651V14.8125C197.034 14.9102 196.64 14.9883 196.201 15.0469C195.766 15.1104 195.315 15.1421 194.846 15.1421C194.216 15.1421 193.674 15.0566 193.22 14.8857C192.766 14.7148 192.392 14.4683 192.099 14.146C191.811 13.8188 191.597 13.4209 191.455 12.9521C191.318 12.4785 191.25 11.9438 191.25 11.3481C191.25 10.8306 191.323 10.3423 191.47 9.8833C191.621 9.41943 191.838 9.01416 192.121 8.66748C192.41 8.31592 192.761 8.0376 193.176 7.83252C193.591 7.62744 194.062 7.5249 194.59 7.5249C195.102 7.5249 195.557 7.60547 195.952 7.7666C196.348 7.92773 196.68 8.15723 196.948 8.45508C197.222 8.74805 197.427 9.10693 197.563 9.53174C197.705 9.95166 197.776 10.4229 197.776 10.9453ZM196.45 10.7622C196.465 10.4351 196.433 10.1372 196.355 9.86865C196.277 9.59521 196.155 9.36084 195.989 9.16553C195.827 8.97021 195.625 8.81885 195.381 8.71143C195.137 8.59912 194.853 8.54297 194.531 8.54297C194.253 8.54297 193.999 8.59668 193.769 8.7041C193.54 8.81152 193.342 8.96289 193.176 9.1582C193.01 9.35352 192.876 9.58789 192.773 9.86133C192.671 10.1348 192.607 10.4351 192.583 10.7622H196.45ZM205.357 15.0103H204.082V8.75537H202.031C201.973 9.76123 201.885 10.623 201.768 11.3408C201.655 12.0586 201.519 12.6592 201.358 13.1426C201.196 13.6211 201.013 13.9995 200.808 14.2778C200.603 14.5513 200.381 14.7515 200.142 14.8784C199.907 15.0005 199.658 15.0591 199.395 15.0542C199.131 15.0542 198.86 15.02 198.582 14.9517L198.64 13.897C198.836 13.9165 199.019 13.9067 199.19 13.8677C199.361 13.8286 199.519 13.7358 199.666 13.5894C199.812 13.438 199.944 13.2231 200.061 12.9448C200.183 12.6616 200.293 12.2856 200.391 11.8169C200.488 11.3481 200.571 10.7744 200.64 10.0957C200.713 9.41211 200.772 8.59912 200.816 7.65674H205.357V15.0103ZM212.41 12.7178C212.41 12.5127 212.371 12.3345 212.293 12.1831C212.22 12.0269 212.1 11.8975 211.934 11.7949C211.768 11.6875 211.553 11.6069 211.29 11.5532C211.026 11.4995 210.708 11.4727 210.337 11.4727C210.103 11.4727 209.847 11.4751 209.568 11.48C209.29 11.4849 209.026 11.4922 208.777 11.502V13.9556C209.026 13.98 209.266 13.9995 209.495 14.0142C209.729 14.0239 209.986 14.0288 210.264 14.0288C210.674 14.0288 211.016 14.0044 211.29 13.9556C211.563 13.9019 211.783 13.8237 211.949 13.7212C212.115 13.6138 212.232 13.4771 212.3 13.311C212.373 13.145 212.41 12.9473 212.41 12.7178ZM208.777 10.4326C208.899 10.4277 209.021 10.4253 209.144 10.4253C209.266 10.4204 209.39 10.418 209.517 10.418C209.644 10.4131 209.778 10.4106 209.92 10.4106C210.061 10.4058 210.215 10.4033 210.381 10.4033C211.514 10.4033 212.354 10.5986 212.901 10.9893C213.453 11.375 213.728 11.9414 213.728 12.6885C213.728 13.4893 213.438 14.0923 212.857 14.4976C212.276 14.8979 211.397 15.0981 210.22 15.0981C209.688 15.0981 209.205 15.0859 208.77 15.0615C208.34 15.042 207.918 15.0054 207.503 14.9517V7.65674H208.777V10.4326ZM221.317 15.0103H220.042V11.7583H216.68V15.0103H215.406V7.65674H216.68V10.645H220.042V7.65674H221.317V15.0103ZM228.568 15.0103V7.65674H229.828V15.0103H228.568ZM226.444 12.7544C226.444 12.3687 226.322 12.0708 226.078 11.8608C225.838 11.646 225.455 11.5386 224.928 11.5386C224.786 11.5386 224.642 11.541 224.496 11.5459C224.349 11.5508 224.198 11.5581 224.042 11.5679V13.9849C224.198 14.0093 224.347 14.0264 224.488 14.0361C224.63 14.041 224.772 14.0435 224.913 14.0435C225.211 14.0435 225.458 14.0093 225.653 13.9409C225.848 13.8677 226.002 13.7725 226.114 13.6553C226.232 13.5381 226.315 13.4014 226.363 13.2451C226.417 13.0889 226.444 12.9253 226.444 12.7544ZM224.042 10.4985C224.217 10.4937 224.381 10.4912 224.532 10.4912C224.689 10.4863 224.85 10.4839 225.016 10.4839C225.475 10.4839 225.875 10.54 226.217 10.6523C226.564 10.7598 226.852 10.9136 227.081 11.1138C227.311 11.3091 227.482 11.5459 227.594 11.8242C227.706 12.0977 227.762 12.3955 227.762 12.7178C227.762 13.1084 227.696 13.4526 227.565 13.7505C227.433 14.0435 227.245 14.29 227.001 14.4902C226.756 14.6904 226.456 14.8418 226.1 14.9443C225.748 15.0469 225.328 15.0981 224.84 15.0981C224.527 15.0981 224.195 15.0884 223.844 15.0688C223.497 15.0542 223.143 15.02 222.782 14.9663V7.65674H224.042V10.4985ZM232.677 7.65674V12.835L235.885 7.65674H237.101V15.0103H235.827V9.83203L232.619 15.0103H231.403V7.65674H232.677ZM236.5 4.82227C236.5 5.11035 236.444 5.3667 236.332 5.59131C236.224 5.81592 236.071 6.00879 235.87 6.16992C235.675 6.32617 235.438 6.4458 235.16 6.52881C234.882 6.61182 234.574 6.65332 234.237 6.65332C233.847 6.65332 233.512 6.61182 233.234 6.52881C232.955 6.4458 232.726 6.32617 232.545 6.16992C232.369 6.00879 232.24 5.81592 232.157 5.59131C232.074 5.3667 232.033 5.11035 232.033 4.82227H233.19C233.19 4.96387 233.207 5.0957 233.241 5.21777C233.275 5.33984 233.331 5.44971 233.41 5.54736C233.493 5.64014 233.602 5.71338 233.739 5.76709C233.876 5.8208 234.047 5.84766 234.252 5.84766C234.462 5.84766 234.635 5.8208 234.772 5.76709C234.913 5.71338 235.026 5.64014 235.109 5.54736C235.192 5.44971 235.25 5.33984 235.285 5.21777C235.319 5.0957 235.336 4.96387 235.336 4.82227H236.5ZM110.058 30.0103H108.783V23.77H105.421V30.0103H104.147V22.6567H110.058V30.0103ZM118.378 26.2017C118.378 26.856 118.286 27.4272 118.1 27.9155C117.919 28.4038 117.668 28.8091 117.346 29.1313C117.023 29.4536 116.642 29.6953 116.203 29.8564C115.764 30.0176 115.287 30.0981 114.775 30.0981C114.54 30.0981 114.306 30.0859 114.072 30.0615C113.842 30.0371 113.608 29.9956 113.369 29.937V33.0132H112.094V22.6567H113.229L113.31 23.8872C113.676 23.3843 114.067 23.0327 114.482 22.8325C114.897 22.6274 115.346 22.5249 115.829 22.5249C116.249 22.5249 116.618 22.6128 116.935 22.7886C117.253 22.9644 117.519 23.2134 117.734 23.5356C117.949 23.853 118.11 24.2388 118.217 24.6929C118.325 25.1421 118.378 25.645 118.378 26.2017ZM117.075 26.2603C117.075 25.8745 117.045 25.5205 116.987 25.1982C116.933 24.876 116.845 24.6001 116.723 24.3706C116.601 24.1411 116.445 23.9629 116.254 23.8359C116.064 23.7041 115.837 23.6382 115.573 23.6382C115.412 23.6382 115.248 23.665 115.082 23.7188C114.916 23.7676 114.743 23.853 114.562 23.9751C114.387 24.0923 114.199 24.251 113.998 24.4512C113.803 24.6465 113.593 24.8906 113.369 25.1836V28.7505C113.603 28.8481 113.849 28.9263 114.108 28.9849C114.367 29.0386 114.621 29.0654 114.87 29.0654C115.558 29.0654 116.098 28.8335 116.489 28.3696C116.879 27.9009 117.075 27.1978 117.075 26.2603ZM126.443 26.2749C126.443 26.8462 126.362 27.3711 126.201 27.8496C126.04 28.3232 125.808 28.731 125.505 29.0728C125.202 29.4097 124.834 29.6733 124.399 29.8638C123.965 30.0493 123.471 30.1421 122.92 30.1421C122.392 30.1421 121.919 30.0615 121.499 29.9004C121.084 29.7344 120.73 29.4927 120.437 29.1753C120.149 28.8579 119.926 28.4648 119.77 27.9961C119.619 27.5273 119.543 26.9878 119.543 26.3774C119.543 25.8062 119.624 25.2861 119.785 24.8174C119.946 24.3438 120.178 23.9385 120.481 23.6016C120.783 23.2598 121.152 22.9961 121.587 22.8105C122.021 22.6201 122.514 22.5249 123.066 22.5249C123.593 22.5249 124.065 22.6079 124.48 22.7739C124.9 22.9351 125.254 23.1743 125.542 23.4917C125.835 23.8042 126.057 24.1948 126.208 24.6636C126.364 25.1323 126.443 25.6694 126.443 26.2749ZM125.139 26.3335C125.139 25.8794 125.088 25.4839 124.985 25.147C124.887 24.8052 124.746 24.522 124.56 24.2974C124.375 24.0679 124.148 23.897 123.879 23.7847C123.615 23.6675 123.32 23.6089 122.993 23.6089C122.612 23.6089 122.285 23.6846 122.011 23.8359C121.743 23.9824 121.521 24.1802 121.345 24.4292C121.174 24.6782 121.047 24.9688 120.964 25.3008C120.886 25.6279 120.847 25.9722 120.847 26.3335C120.847 26.7876 120.896 27.1855 120.993 27.5273C121.096 27.8691 121.24 28.1548 121.425 28.3843C121.611 28.6089 121.836 28.7798 122.099 28.897C122.363 29.0093 122.661 29.0654 122.993 29.0654C123.374 29.0654 123.698 28.9922 123.967 28.8457C124.24 28.6943 124.463 28.4941 124.633 28.2451C124.809 27.9961 124.936 27.708 125.014 27.3809C125.097 27.0488 125.139 26.6997 125.139 26.3335ZM134.199 25.9453C134.199 26.126 134.197 26.2773 134.192 26.3994C134.187 26.5215 134.18 26.6362 134.17 26.7437H129.006C129.006 27.4956 129.216 28.0742 129.636 28.4795C130.056 28.8799 130.662 29.0801 131.453 29.0801C131.667 29.0801 131.882 29.0728 132.097 29.0581C132.312 29.0386 132.519 29.0142 132.72 28.9849C132.92 28.9556 133.11 28.9238 133.291 28.8896C133.477 28.8506 133.647 28.8091 133.804 28.7651V29.8125C133.457 29.9102 133.064 29.9883 132.624 30.0469C132.19 30.1104 131.738 30.1421 131.269 30.1421C130.64 30.1421 130.098 30.0566 129.644 29.8857C129.189 29.7148 128.816 29.4683 128.523 29.146C128.235 28.8188 128.02 28.4209 127.878 27.9521C127.742 27.4785 127.673 26.9438 127.673 26.3481C127.673 25.8306 127.747 25.3423 127.893 24.8833C128.044 24.4194 128.262 24.0142 128.545 23.6675C128.833 23.3159 129.185 23.0376 129.6 22.8325C130.015 22.6274 130.486 22.5249 131.013 22.5249C131.526 22.5249 131.98 22.6055 132.375 22.7666C132.771 22.9277 133.103 23.1572 133.372 23.4551C133.645 23.748 133.85 24.1069 133.987 24.5317C134.128 24.9517 134.199 25.4229 134.199 25.9453ZM132.873 25.7622C132.888 25.4351 132.856 25.1372 132.778 24.8687C132.7 24.5952 132.578 24.3608 132.412 24.1655C132.251 23.9702 132.048 23.8188 131.804 23.7114C131.56 23.5991 131.277 23.543 130.955 23.543C130.676 23.543 130.422 23.5967 130.193 23.7041C129.963 23.8115 129.766 23.9629 129.6 24.1582C129.434 24.3535 129.299 24.5879 129.197 24.8613C129.094 25.1348 129.031 25.4351 129.006 25.7622H132.873ZM142.549 30.0103H140.799L137.371 26.0698V30.0103H136.096V22.6567H137.371V26.0186L140.674 22.6567H142.359L138.909 26.0479L142.549 30.0103ZM150.269 23.7554H147.479V30.0103H146.19V23.7554H143.399V22.6567H150.269V23.7554Z" fill="#09090B"/>
    <path d="M105.436 9.37061H106.982C107.567 9.37061 108.083 9.44141 108.527 9.58301C108.976 9.71973 109.35 9.91016 109.648 10.1543C109.95 10.3984 110.177 10.6841 110.329 11.0112C110.485 11.3384 110.563 11.6924 110.563 12.0732C110.563 12.5273 110.473 12.9375 110.292 13.3037C110.116 13.665 109.865 13.9727 109.538 14.2266C109.215 14.4805 108.825 14.6758 108.366 14.8125C107.912 14.9443 107.404 15.0103 106.842 15.0103H104.132V5.4375H109.889V6.53613H105.436V9.37061ZM109.186 12.1611C109.186 11.9023 109.142 11.668 109.054 11.458C108.966 11.248 108.83 11.0674 108.644 10.916C108.459 10.7646 108.222 10.6499 107.934 10.5718C107.646 10.4888 107.299 10.4473 106.894 10.4473H105.436V13.9116H106.938C107.68 13.9116 108.239 13.7603 108.615 13.4575C108.996 13.1499 109.186 12.7178 109.186 12.1611ZM117.939 15.0103H116.664V8.75537H114.614C114.555 9.76123 114.467 10.623 114.35 11.3408C114.238 12.0586 114.101 12.6592 113.94 13.1426C113.779 13.6211 113.596 13.9995 113.39 14.2778C113.185 14.5513 112.963 14.7515 112.724 14.8784C112.49 15.0005 112.241 15.0591 111.977 15.0542C111.713 15.0542 111.442 15.02 111.164 14.9517L111.223 13.897C111.418 13.9165 111.601 13.9067 111.772 13.8677C111.943 13.8286 112.101 13.7358 112.248 13.5894C112.394 13.438 112.526 13.2231 112.643 12.9448C112.765 12.6616 112.875 12.2856 112.973 11.8169C113.071 11.3481 113.154 10.7744 113.222 10.0957C113.295 9.41211 113.354 8.59912 113.398 7.65674H117.939V15.0103ZM124.765 15.0103L124.736 14.0215C124.336 14.417 123.928 14.7026 123.513 14.8784C123.103 15.0542 122.671 15.1421 122.216 15.1421C121.797 15.1421 121.438 15.0884 121.14 14.981C120.842 14.8735 120.595 14.7271 120.4 14.5415C120.21 14.3511 120.068 14.1289 119.975 13.875C119.887 13.6211 119.843 13.3452 119.843 13.0474C119.843 12.3101 120.117 11.7339 120.664 11.3188C121.215 10.8989 122.028 10.689 123.103 10.689H124.626V10.0444C124.626 9.60986 124.487 9.26318 124.209 9.00439C123.93 8.74072 123.506 8.60889 122.934 8.60889C122.519 8.60889 122.109 8.65527 121.704 8.74805C121.303 8.84082 120.888 8.97266 120.459 9.14355V7.99365C120.62 7.93506 120.798 7.87891 120.993 7.8252C121.194 7.7666 121.403 7.71533 121.623 7.67139C121.843 7.62744 122.072 7.59326 122.312 7.56885C122.551 7.53955 122.793 7.5249 123.037 7.5249C123.481 7.5249 123.882 7.57373 124.238 7.67139C124.594 7.76904 124.895 7.91797 125.139 8.11816C125.388 8.31836 125.578 8.56982 125.71 8.87256C125.842 9.17529 125.908 9.53174 125.908 9.94189V15.0103H124.765ZM124.626 11.6631H123.007C122.69 11.6631 122.417 11.6948 122.187 11.7583C121.958 11.8218 121.77 11.9121 121.623 12.0293C121.477 12.1465 121.367 12.2881 121.294 12.4541C121.225 12.6152 121.191 12.7983 121.191 13.0034C121.191 13.145 121.213 13.2817 121.257 13.4136C121.301 13.5405 121.372 13.6553 121.469 13.7578C121.567 13.8555 121.694 13.9336 121.85 13.9922C122.007 14.0508 122.197 14.0801 122.422 14.0801C122.715 14.0801 123.049 13.9922 123.425 13.8164C123.806 13.6357 124.206 13.3525 124.626 12.9668V11.6631ZM129.878 8.75537V15.0103H128.589V7.65674H133.914V8.75537H129.878ZM142.337 11.2749C142.337 11.8462 142.256 12.3711 142.095 12.8496C141.934 13.3232 141.702 13.731 141.399 14.0728C141.096 14.4097 140.728 14.6733 140.293 14.8638C139.859 15.0493 139.365 15.1421 138.814 15.1421C138.286 15.1421 137.813 15.0615 137.393 14.9004C136.978 14.7344 136.624 14.4927 136.331 14.1753C136.043 13.8579 135.821 13.4648 135.664 12.9961C135.513 12.5273 135.437 11.9878 135.437 11.3774C135.437 10.8062 135.518 10.2861 135.679 9.81738C135.84 9.34375 136.072 8.93848 136.375 8.60156C136.678 8.25977 137.046 7.99609 137.481 7.81055C137.915 7.62012 138.408 7.5249 138.96 7.5249C139.488 7.5249 139.959 7.60791 140.374 7.77393C140.794 7.93506 141.148 8.17432 141.436 8.4917C141.729 8.8042 141.951 9.19482 142.102 9.66357C142.259 10.1323 142.337 10.6694 142.337 11.2749ZM141.033 11.3335C141.033 10.8794 140.982 10.4839 140.879 10.147C140.782 9.80518 140.64 9.52197 140.454 9.29736C140.269 9.06787 140.042 8.89697 139.773 8.78467C139.51 8.66748 139.214 8.60889 138.887 8.60889C138.506 8.60889 138.179 8.68457 137.906 8.83594C137.637 8.98242 137.415 9.18018 137.239 9.4292C137.068 9.67822 136.941 9.96875 136.858 10.3008C136.78 10.6279 136.741 10.9722 136.741 11.3335C136.741 11.7876 136.79 12.1855 136.887 12.5273C136.99 12.8691 137.134 13.1548 137.32 13.3843C137.505 13.6089 137.73 13.7798 137.993 13.897C138.257 14.0093 138.555 14.0654 138.887 14.0654C139.268 14.0654 139.593 13.9922 139.861 13.8457C140.135 13.6943 140.357 13.4941 140.528 13.2451C140.703 12.9961 140.83 12.708 140.908 12.3809C140.991 12.0488 141.033 11.6997 141.033 11.3335ZM150.269 8.75537H147.479V15.0103H146.19V8.75537H143.399V7.65674H150.269V8.75537ZM158.143 12.8643C158.143 13.2012 158.072 13.5088 157.931 13.7871C157.789 14.0654 157.569 14.3047 157.271 14.5049C156.973 14.7002 156.595 14.854 156.136 14.9663C155.682 15.0737 155.14 15.1274 154.51 15.1274C154.095 15.1274 153.653 15.1104 153.184 15.0762C152.716 15.0469 152.264 15.0054 151.829 14.9517V7.69336C152.288 7.63965 152.752 7.59814 153.221 7.56885C153.695 7.53955 154.205 7.5249 154.752 7.5249C155.743 7.5249 156.495 7.68848 157.008 8.01562C157.525 8.33789 157.784 8.8042 157.784 9.41455C157.784 9.82959 157.664 10.186 157.425 10.4839C157.186 10.7817 156.825 11.0015 156.341 11.1431C156.576 11.1821 156.8 11.248 157.015 11.3408C157.235 11.4287 157.428 11.5459 157.594 11.6924C157.76 11.834 157.891 12.0024 157.989 12.1978C158.092 12.3931 158.143 12.6152 158.143 12.8643ZM156.48 9.6709C156.48 9.5 156.446 9.34619 156.378 9.20947C156.309 9.07275 156.2 8.95557 156.048 8.85791C155.902 8.76025 155.706 8.68701 155.462 8.63818C155.223 8.58447 154.932 8.55762 154.591 8.55762C154.283 8.55762 154.015 8.56494 153.785 8.57959C153.556 8.58936 153.328 8.60889 153.104 8.63818V10.7622H154.583C155.848 10.7622 156.48 10.3984 156.48 9.6709ZM156.795 12.8936C156.795 12.5127 156.622 12.2271 156.275 12.0366C155.933 11.8413 155.399 11.7437 154.671 11.7437H153.104V13.9922C153.343 14.0312 153.58 14.0581 153.814 14.0728C154.049 14.0874 154.317 14.0947 154.62 14.0947C155.055 14.0947 155.411 14.0654 155.689 14.0068C155.973 13.9482 156.195 13.8652 156.356 13.7578C156.522 13.6504 156.637 13.5234 156.7 13.377C156.764 13.2305 156.795 13.0693 156.795 12.8936ZM166.178 11.2749C166.178 11.8462 166.097 12.3711 165.936 12.8496C165.775 13.3232 165.543 13.731 165.24 14.0728C164.938 14.4097 164.569 14.6733 164.134 14.8638C163.7 15.0493 163.207 15.1421 162.655 15.1421C162.128 15.1421 161.654 15.0615 161.234 14.9004C160.819 14.7344 160.465 14.4927 160.172 14.1753C159.884 13.8579 159.662 13.4648 159.506 12.9961C159.354 12.5273 159.278 11.9878 159.278 11.3774C159.278 10.8062 159.359 10.2861 159.52 9.81738C159.681 9.34375 159.913 8.93848 160.216 8.60156C160.519 8.25977 160.887 7.99609 161.322 7.81055C161.757 7.62012 162.25 7.5249 162.801 7.5249C163.329 7.5249 163.8 7.60791 164.215 7.77393C164.635 7.93506 164.989 8.17432 165.277 8.4917C165.57 8.8042 165.792 9.19482 165.944 9.66357C166.1 10.1323 166.178 10.6694 166.178 11.2749ZM164.874 11.3335C164.874 10.8794 164.823 10.4839 164.72 10.147C164.623 9.80518 164.481 9.52197 164.296 9.29736C164.11 9.06787 163.883 8.89697 163.614 8.78467C163.351 8.66748 163.055 8.60889 162.728 8.60889C162.347 8.60889 162.02 8.68457 161.747 8.83594C161.478 8.98242 161.256 9.18018 161.08 9.4292C160.909 9.67822 160.782 9.96875 160.699 10.3008C160.621 10.6279 160.582 10.9722 160.582 11.3335C160.582 11.7876 160.631 12.1855 160.729 12.5273C160.831 12.8691 160.975 13.1548 161.161 13.3843C161.346 13.6089 161.571 13.7798 161.835 13.897C162.098 14.0093 162.396 14.0654 162.728 14.0654C163.109 14.0654 163.434 13.9922 163.702 13.8457C163.976 13.6943 164.198 13.4941 164.369 13.2451C164.545 12.9961 164.672 12.708 164.75 12.3809C164.833 12.0488 164.874 11.6997 164.874 11.3335ZM174.008 11.2017C174.008 11.856 173.915 12.4272 173.729 12.9155C173.549 13.4038 173.297 13.8091 172.975 14.1313C172.653 14.4536 172.272 14.6953 171.832 14.8564C171.393 15.0176 170.917 15.0981 170.404 15.0981C170.17 15.0981 169.936 15.0859 169.701 15.0615C169.472 15.0371 169.237 14.9956 168.998 14.937V18.0132H167.724V7.65674H168.859L168.939 8.88721C169.306 8.38428 169.696 8.03271 170.111 7.83252C170.526 7.62744 170.976 7.5249 171.459 7.5249C171.879 7.5249 172.248 7.61279 172.565 7.78857C172.882 7.96436 173.148 8.21338 173.363 8.53564C173.578 8.85303 173.739 9.23877 173.847 9.69287C173.954 10.1421 174.008 10.645 174.008 11.2017ZM172.704 11.2603C172.704 10.8745 172.675 10.5205 172.616 10.1982C172.562 9.87598 172.475 9.6001 172.353 9.37061C172.23 9.14111 172.074 8.96289 171.884 8.83594C171.693 8.7041 171.466 8.63818 171.203 8.63818C171.041 8.63818 170.878 8.66504 170.712 8.71875C170.546 8.76758 170.373 8.85303 170.192 8.9751C170.016 9.09229 169.828 9.25098 169.628 9.45117C169.433 9.64648 169.223 9.89062 168.998 10.1836V13.7505C169.232 13.8481 169.479 13.9263 169.738 13.9849C169.997 14.0386 170.25 14.0654 170.499 14.0654C171.188 14.0654 171.728 13.8335 172.118 13.3696C172.509 12.9009 172.704 12.1978 172.704 11.2603ZM177.048 7.65674V12.835L180.256 7.65674H181.471V15.0103H180.197V9.83203L176.989 15.0103H175.773V7.65674H177.048ZM190.004 8.75537H187.214V15.0103H185.925V8.75537H183.134V7.65674H190.004V8.75537ZM197.776 10.9453C197.776 11.126 197.773 11.2773 197.768 11.3994C197.764 11.5215 197.756 11.6362 197.746 11.7437H192.583C192.583 12.4956 192.793 13.0742 193.213 13.4795C193.633 13.8799 194.238 14.0801 195.029 14.0801C195.244 14.0801 195.459 14.0728 195.674 14.0581C195.889 14.0386 196.096 14.0142 196.296 13.9849C196.496 13.9556 196.687 13.9238 196.868 13.8896C197.053 13.8506 197.224 13.8091 197.38 13.7651V14.8125C197.034 14.9102 196.64 14.9883 196.201 15.0469C195.766 15.1104 195.315 15.1421 194.846 15.1421C194.216 15.1421 193.674 15.0566 193.22 14.8857C192.766 14.7148 192.392 14.4683 192.099 14.146C191.811 13.8188 191.597 13.4209 191.455 12.9521C191.318 12.4785 191.25 11.9438 191.25 11.3481C191.25 10.8306 191.323 10.3423 191.47 9.8833C191.621 9.41943 191.838 9.01416 192.121 8.66748C192.41 8.31592 192.761 8.0376 193.176 7.83252C193.591 7.62744 194.062 7.5249 194.59 7.5249C195.102 7.5249 195.557 7.60547 195.952 7.7666C196.348 7.92773 196.68 8.15723 196.948 8.45508C197.222 8.74805 197.427 9.10693 197.563 9.53174C197.705 9.95166 197.776 10.4229 197.776 10.9453ZM196.45 10.7622C196.465 10.4351 196.433 10.1372 196.355 9.86865C196.277 9.59521 196.155 9.36084 195.989 9.16553C195.827 8.97021 195.625 8.81885 195.381 8.71143C195.137 8.59912 194.853 8.54297 194.531 8.54297C194.253 8.54297 193.999 8.59668 193.769 8.7041C193.54 8.81152 193.342 8.96289 193.176 9.1582C193.01 9.35352 192.876 9.58789 192.773 9.86133C192.671 10.1348 192.607 10.4351 192.583 10.7622H196.45ZM205.357 15.0103H204.082V8.75537H202.031C201.973 9.76123 201.885 10.623 201.768 11.3408C201.655 12.0586 201.519 12.6592 201.358 13.1426C201.196 13.6211 201.013 13.9995 200.808 14.2778C200.603 14.5513 200.381 14.7515 200.142 14.8784C199.907 15.0005 199.658 15.0591 199.395 15.0542C199.131 15.0542 198.86 15.02 198.582 14.9517L198.64 13.897C198.836 13.9165 199.019 13.9067 199.19 13.8677C199.361 13.8286 199.519 13.7358 199.666 13.5894C199.812 13.438 199.944 13.2231 200.061 12.9448C200.183 12.6616 200.293 12.2856 200.391 11.8169C200.488 11.3481 200.571 10.7744 200.64 10.0957C200.713 9.41211 200.772 8.59912 200.816 7.65674H205.357V15.0103ZM212.41 12.7178C212.41 12.5127 212.371 12.3345 212.293 12.1831C212.22 12.0269 212.1 11.8975 211.934 11.7949C211.768 11.6875 211.553 11.6069 211.29 11.5532C211.026 11.4995 210.708 11.4727 210.337 11.4727C210.103 11.4727 209.847 11.4751 209.568 11.48C209.29 11.4849 209.026 11.4922 208.777 11.502V13.9556C209.026 13.98 209.266 13.9995 209.495 14.0142C209.729 14.0239 209.986 14.0288 210.264 14.0288C210.674 14.0288 211.016 14.0044 211.29 13.9556C211.563 13.9019 211.783 13.8237 211.949 13.7212C212.115 13.6138 212.232 13.4771 212.3 13.311C212.373 13.145 212.41 12.9473 212.41 12.7178ZM208.777 10.4326C208.899 10.4277 209.021 10.4253 209.144 10.4253C209.266 10.4204 209.39 10.418 209.517 10.418C209.644 10.4131 209.778 10.4106 209.92 10.4106C210.061 10.4058 210.215 10.4033 210.381 10.4033C211.514 10.4033 212.354 10.5986 212.901 10.9893C213.453 11.375 213.728 11.9414 213.728 12.6885C213.728 13.4893 213.438 14.0923 212.857 14.4976C212.276 14.8979 211.397 15.0981 210.22 15.0981C209.688 15.0981 209.205 15.0859 208.77 15.0615C208.34 15.042 207.918 15.0054 207.503 14.9517V7.65674H208.777V10.4326ZM221.317 15.0103H220.042V11.7583H216.68V15.0103H215.406V7.65674H216.68V10.645H220.042V7.65674H221.317V15.0103ZM228.568 15.0103V7.65674H229.828V15.0103H228.568ZM226.444 12.7544C226.444 12.3687 226.322 12.0708 226.078 11.8608C225.838 11.646 225.455 11.5386 224.928 11.5386C224.786 11.5386 224.642 11.541 224.496 11.5459C224.349 11.5508 224.198 11.5581 224.042 11.5679V13.9849C224.198 14.0093 224.347 14.0264 224.488 14.0361C224.63 14.041 224.772 14.0435 224.913 14.0435C225.211 14.0435 225.458 14.0093 225.653 13.9409C225.848 13.8677 226.002 13.7725 226.114 13.6553C226.232 13.5381 226.315 13.4014 226.363 13.2451C226.417 13.0889 226.444 12.9253 226.444 12.7544ZM224.042 10.4985C224.217 10.4937 224.381 10.4912 224.532 10.4912C224.689 10.4863 224.85 10.4839 225.016 10.4839C225.475 10.4839 225.875 10.54 226.217 10.6523C226.564 10.7598 226.852 10.9136 227.081 11.1138C227.311 11.3091 227.482 11.5459 227.594 11.8242C227.706 12.0977 227.762 12.3955 227.762 12.7178C227.762 13.1084 227.696 13.4526 227.565 13.7505C227.433 14.0435 227.245 14.29 227.001 14.4902C226.756 14.6904 226.456 14.8418 226.1 14.9443C225.748 15.0469 225.328 15.0981 224.84 15.0981C224.527 15.0981 224.195 15.0884 223.844 15.0688C223.497 15.0542 223.143 15.02 222.782 14.9663V7.65674H224.042V10.4985ZM232.677 7.65674V12.835L235.885 7.65674H237.101V15.0103H235.827V9.83203L232.619 15.0103H231.403V7.65674H232.677ZM236.5 4.82227C236.5 5.11035 236.444 5.3667 236.332 5.59131C236.224 5.81592 236.071 6.00879 235.87 6.16992C235.675 6.32617 235.438 6.4458 235.16 6.52881C234.882 6.61182 234.574 6.65332 234.237 6.65332C233.847 6.65332 233.512 6.61182 233.234 6.52881C232.955 6.4458 232.726 6.32617 232.545 6.16992C232.369 6.00879 232.24 5.81592 232.157 5.59131C232.074 5.3667 232.033 5.11035 232.033 4.82227H233.19C233.19 4.96387 233.207 5.0957 233.241 5.21777C233.275 5.33984 233.331 5.44971 233.41 5.54736C233.493 5.64014 233.602 5.71338 233.739 5.76709C233.876 5.8208 234.047 5.84766 234.252 5.84766C234.462 5.84766 234.635 5.8208 234.772 5.76709C234.913 5.71338 235.026 5.64014 235.109 5.54736C235.192 5.44971 235.25 5.33984 235.285 5.21777C235.319 5.0957 235.336 4.96387 235.336 4.82227H236.5ZM110.058 30.0103H108.783V23.77H105.421V30.0103H104.147V22.6567H110.058V30.0103ZM118.378 26.2017C118.378 26.856 118.286 27.4272 118.1 27.9155C117.919 28.4038 117.668 28.8091 117.346 29.1313C117.023 29.4536 116.642 29.6953 116.203 29.8564C115.764 30.0176 115.287 30.0981 114.775 30.0981C114.54 30.0981 114.306 30.0859 114.072 30.0615C113.842 30.0371 113.608 29.9956 113.369 29.937V33.0132H112.094V22.6567H113.229L113.31 23.8872C113.676 23.3843 114.067 23.0327 114.482 22.8325C114.897 22.6274 115.346 22.5249 115.829 22.5249C116.249 22.5249 116.618 22.6128 116.935 22.7886C117.253 22.9644 117.519 23.2134 117.734 23.5356C117.949 23.853 118.11 24.2388 118.217 24.6929C118.325 25.1421 118.378 25.645 118.378 26.2017ZM117.075 26.2603C117.075 25.8745 117.045 25.5205 116.987 25.1982C116.933 24.876 116.845 24.6001 116.723 24.3706C116.601 24.1411 116.445 23.9629 116.254 23.8359C116.064 23.7041 115.837 23.6382 115.573 23.6382C115.412 23.6382 115.248 23.665 115.082 23.7188C114.916 23.7676 114.743 23.853 114.562 23.9751C114.387 24.0923 114.199 24.251 113.998 24.4512C113.803 24.6465 113.593 24.8906 113.369 25.1836V28.7505C113.603 28.8481 113.849 28.9263 114.108 28.9849C114.367 29.0386 114.621 29.0654 114.87 29.0654C115.558 29.0654 116.098 28.8335 116.489 28.3696C116.879 27.9009 117.075 27.1978 117.075 26.2603ZM126.443 26.2749C126.443 26.8462 126.362 27.3711 126.201 27.8496C126.04 28.3232 125.808 28.731 125.505 29.0728C125.202 29.4097 124.834 29.6733 124.399 29.8638C123.965 30.0493 123.471 30.1421 122.92 30.1421C122.392 30.1421 121.919 30.0615 121.499 29.9004C121.084 29.7344 120.73 29.4927 120.437 29.1753C120.149 28.8579 119.926 28.4648 119.77 27.9961C119.619 27.5273 119.543 26.9878 119.543 26.3774C119.543 25.8062 119.624 25.2861 119.785 24.8174C119.946 24.3438 120.178 23.9385 120.481 23.6016C120.783 23.2598 121.152 22.9961 121.587 22.8105C122.021 22.6201 122.514 22.5249 123.066 22.5249C123.593 22.5249 124.065 22.6079 124.48 22.7739C124.9 22.9351 125.254 23.1743 125.542 23.4917C125.835 23.8042 126.057 24.1948 126.208 24.6636C126.364 25.1323 126.443 25.6694 126.443 26.2749ZM125.139 26.3335C125.139 25.8794 125.088 25.4839 124.985 25.147C124.887 24.8052 124.746 24.522 124.56 24.2974C124.375 24.0679 124.148 23.897 123.879 23.7847C123.615 23.6675 123.32 23.6089 122.993 23.6089C122.612 23.6089 122.285 23.6846 122.011 23.8359C121.743 23.9824 121.521 24.1802 121.345 24.4292C121.174 24.6782 121.047 24.9688 120.964 25.3008C120.886 25.6279 120.847 25.9722 120.847 26.3335C120.847 26.7876 120.896 27.1855 120.993 27.5273C121.096 27.8691 121.24 28.1548 121.425 28.3843C121.611 28.6089 121.836 28.7798 122.099 28.897C122.363 29.0093 122.661 29.0654 122.993 29.0654C123.374 29.0654 123.698 28.9922 123.967 28.8457C124.24 28.6943 124.463 28.4941 124.633 28.2451C124.809 27.9961 124.936 27.708 125.014 27.3809C125.097 27.0488 125.139 26.6997 125.139 26.3335ZM134.199 25.9453C134.199 26.126 134.197 26.2773 134.192 26.3994C134.187 26.5215 134.18 26.6362 134.17 26.7437H129.006C129.006 27.4956 129.216 28.0742 129.636 28.4795C130.056 28.8799 130.662 29.0801 131.453 29.0801C131.667 29.0801 131.882 29.0728 132.097 29.0581C132.312 29.0386 132.519 29.0142 132.72 28.9849C132.92 28.9556 133.11 28.9238 133.291 28.8896C133.477 28.8506 133.647 28.8091 133.804 28.7651V29.8125C133.457 29.9102 133.064 29.9883 132.624 30.0469C132.19 30.1104 131.738 30.1421 131.269 30.1421C130.64 30.1421 130.098 30.0566 129.644 29.8857C129.189 29.7148 128.816 29.4683 128.523 29.146C128.235 28.8188 128.02 28.4209 127.878 27.9521C127.742 27.4785 127.673 26.9438 127.673 26.3481C127.673 25.8306 127.747 25.3423 127.893 24.8833C128.044 24.4194 128.262 24.0142 128.545 23.6675C128.833 23.3159 129.185 23.0376 129.6 22.8325C130.015 22.6274 130.486 22.5249 131.013 22.5249C131.526 22.5249 131.98 22.6055 132.375 22.7666C132.771 22.9277 133.103 23.1572 133.372 23.4551C133.645 23.748 133.85 24.1069 133.987 24.5317C134.128 24.9517 134.199 25.4229 134.199 25.9453ZM132.873 25.7622C132.888 25.4351 132.856 25.1372 132.778 24.8687C132.7 24.5952 132.578 24.3608 132.412 24.1655C132.251 23.9702 132.048 23.8188 131.804 23.7114C131.56 23.5991 131.277 23.543 130.955 23.543C130.676 23.543 130.422 23.5967 130.193 23.7041C129.963 23.8115 129.766 23.9629 129.6 24.1582C129.434 24.3535 129.299 24.5879 129.197 24.8613C129.094 25.1348 129.031 25.4351 129.006 25.7622H132.873ZM142.549 30.0103H140.799L137.371 26.0698V30.0103H136.096V22.6567H137.371V26.0186L140.674 22.6567H142.359L138.909 26.0479L142.549 30.0103ZM150.269 23.7554H147.479V30.0103H146.19V23.7554H143.399V22.6567H150.269V23.7554Z" fill="url(#paint1_linear_5424_7390)"/>
    <defs>
        <linearGradient id="paint0_linear_5424_7390" x1="95.6357" y1="-3.5596" x2="97.7728" y2="-3.49349" gradientUnits="userSpaceOnUse">
            <stop stop-color="#1F8AFF"/>
            <stop offset="1" stop-color="#BCDCFF"/>
        </linearGradient>
        <linearGradient id="paint1_linear_5424_7390" x1="186.462" y1="-6.32308" x2="204.85" y2="66.6594" gradientUnits="userSpaceOnUse">
            <stop stop-color="#1F8AFF"/>
            <stop offset="1" stop-color="#BCDCFF"/>
        </linearGradient>
        <clipPath id="clip0_5424_7390">
            <rect width="47.5155" height="22.1818" fill="white" transform="translate(31.7019 7.91919)"/>
        </clipPath>
        <clipPath id="clip1_5424_7390">
            <rect width="47.5155" height="22.1818" fill="white" transform="translate(31.7019 7.91919)"/>
        </clipPath>
        <clipPath id="clip2_5424_7390">
            <rect width="47.5155" height="22.1819" fill="white" transform="translate(31.7019 7.91919)"/>
        </clipPath>
    </defs>
</svg>
