<svg width="60" height="28" viewBox="0 0 60 28" fill="none" xmlns="http://www.w3.org/2000/svg">
    <g clip-path="url(#clip0_5424_7463)">
        <g clip-path="url(#clip1_5424_7463)">
            <g clip-path="url(#clip2_5424_7463)">
                <mask id="mask0_5424_7463" style="mask-type:luminance" maskUnits="userSpaceOnUse" x="0" y="-1" width="60" height="30">
                    <path d="M60 -0.00500488H0V28.005H60V-0.00500488Z" fill="white"/>
                </mask>
                <g mask="url(#mask0_5424_7463)">
                    <path d="M2.94246 0.364894L0.670854 2.32589L0.664212 10.1566L2.27161 12.1442L0 14.0985V21.8495L1.60075 23.8371L3.94544 21.8495V14.0985H11.7632L11.7566 21.8495L13.4237 23.8371L15.6953 21.8495L15.7086 14.0985L14.0414 12.1442L12.4274 10.1566H7.44582L17.9072 2.9574L18.3589 0.364894L15.0776 0.245239L4.60963 7.37798V2.32589L2.94246 0.364894Z" fill="#1F8AFF"/>
                    <path d="M32.0458 19.8854L32.0988 13.779L34.0912 11.8961L32.0458 9.75455L32.1121 3.91339H24.2827L24.2163 9.75455L22.1842 11.8961L24.2894 13.779L24.2163 19.8854H32.0458ZM31.8866 -0.00500488L36.0504 3.93329L35.9838 9.77442L34.0846 11.9159L36.0368 13.7989L35.9838 19.9053L31.3351 23.8369H24.1433L20.2783 19.9053L20.3447 13.7989L22.1842 11.9159L20.2783 9.77442L20.3381 3.93329L24.6015 -0.00500488H31.8866Z" fill="#1F8AFF"/>
                    <path d="M52.7849 19.8953L52.9643 14.1036L55.2343 12.1509L53.6279 10.2247L53.8073 4.30018H45.9883L45.8155 10.1982L43.5521 12.0977L45.1188 14.0903L44.9526 19.8953H52.7849ZM54.5041 0.354923H58.4403L57.7764 4.30018L57.5641 10.1982L55.2277 12.1243L56.9002 14.077V19.8687C57.9756 21.2901 58.8916 22.4192 60 23.8074L59.9403 25.9527L57.6636 28.005L55.9975 25.8929L56.0505 23.7476L40.1671 23.6811L40.0477 26.1386L38.0566 28.005L36.3838 25.9527V23.8074L40.8576 19.8687H41.0499L41.1958 14.077L43.572 12.0844L41.873 10.1982L42.0455 4.27362L44.3885 2.28106L46.6254 0.328369L54.5041 0.354923Z" fill="#1F8AFF"/>
                </g>
            </g>
        </g>
    </g>
    <defs>
        <clipPath id="clip0_5424_7463">
            <rect width="60" height="28.01" fill="white" transform="translate(0 -0.00500488)"/>
        </clipPath>
        <clipPath id="clip1_5424_7463">
            <rect width="60" height="28.01" fill="white" transform="translate(0 -0.00500488)"/>
        </clipPath>
        <clipPath id="clip2_5424_7463">
            <rect width="60" height="28.01" fill="white" transform="translate(0 -0.00500488)"/>
        </clipPath>
    </defs>
</svg>
